<svg xmlns="http://www.w3.org/2000/svg" viewBox="0 0 512 512" id="font"><linearGradient id="a" x1="60.858" x2="451.186" y1="-36.395" y2="353.933" gradientTransform="matrix(1 0 0 -1 0 514)" gradientUnits="userSpaceOnUse"><stop offset="0" stop-color="#332c81"></stop><stop offset="1" stop-color="#e21d73"></stop></linearGradient><path fill="url(#a)" d="M488.1 434.6H462L316.1 30.2C311.2 15.7 297.6 6 282.3 6h-52.6c-15.3 0-28.9 9.7-33.8 24.2L50 434.6H23.9c-9.9 0-17.9 8-17.9 17.9v35.7C6 498 14 506 23.9 506h142.9c9.9 0 17.9-8 17.9-17.9v-35.7c0-9.9-8-17.9-17.9-17.9h-21.9l26-71.4h170.3l26 71.4h-21.9c-9.9 0-17.9 8-17.9 17.9v35.7c0 9.9 8 17.9 17.9 17.9h142.9c9.9 0 17.9-8 17.9-17.9v-35.7c-.1-9.8-8.1-17.8-18-17.8zM203.4 273.9 256 129.3l52.6 144.5H203.4v.1z"></path></svg>